# Exported from Wings 3D 2.2.6.1
mtllib ship_prop.mtl
o propCenter
#34 vertices, 64 faces
v 9.2039607e-2 -3.3577120e-17 0.90149228
v 8.5033509e-2 3.5222033e-2 0.90149228
v 6.5081830e-2 6.5081830e-2 0.90149228
v 3.5222033e-2 8.5033509e-2 0.90149228
v 0.0000000e+0 9.2039607e-2 0.90149228
v -3.5222033e-2 8.5033509e-2 0.90149228
v -6.5081830e-2 6.5081830e-2 0.90149228
v -8.5033509e-2 3.5222033e-2 0.90149228
v -9.2039607e-2 8.8357989e-17 0.90149228
v -8.5033509e-2 -3.5222033e-2 0.90149228
v -6.5081830e-2 -6.5081830e-2 0.90149228
v -3.5222033e-2 -8.5033509e-2 0.90149228
v 0.0000000e+0 -9.2039607e-2 0.90149228
v 3.5222033e-2 -8.5033509e-2 0.90149228
v 6.5081830e-2 -6.5081830e-2 0.90149228
v 8.5033509e-2 -3.5222033e-2 0.90149228
v 0.0000000e+0 2.5677080e-18 0.70049752
v 6.0198036e-2 -4.0749774e-17 0.91741306
v 5.5615733e-2 2.3036791e-2 0.91741306
v 4.2566439e-2 4.2566439e-2 0.91741306
v 2.3036791e-2 5.5615733e-2 0.91741306
v 0.0000000e+0 6.0198036e-2 0.91741306
v -2.3036791e-2 5.5615733e-2 0.91741306
v -4.2566439e-2 4.2566439e-2 0.91741306
v -5.5615733e-2 2.3036791e-2 0.91741306
v -6.0198036e-2 7.7599009e-17 0.91741306
v -5.5615733e-2 -2.3036791e-2 0.91741306
v -4.2566439e-2 -4.2566439e-2 0.91741306
v -2.3036791e-2 -5.5615733e-2 0.91741306
v 0.0000000e+0 -6.0198036e-2 0.91741306
v 2.3036791e-2 -5.5615733e-2 0.91741306
v 4.2566439e-2 -4.2566439e-2 0.91741306
v 5.5615733e-2 -2.3036791e-2 0.91741306
v 0.0000000e+0 -4.0749774e-17 0.79701699
vn 0.79292864 1.2017227e-16 0.60931451
vn 0.86952319 0.36016830 0.33794706
vn 0.56068522 0.56068522 0.60931451
vn 0.36016830 0.86952319 0.33794706
vn -3.6667948e-16 0.79292864 0.60931451
vn -0.36016830 0.86952319 0.33794706
vn -0.56068522 0.56068522 0.60931451
vn -0.86952319 0.36016830 0.33794706
vn -0.79292864 -1.7563639e-16 0.60931451
vn -0.86952319 -0.36016830 0.33794706
vn -0.56068522 -0.56068522 0.60931451
vn -0.36016830 -0.86952319 0.33794706
vn -6.9638287e-16 -0.79292864 0.60931451
vn 0.36016830 -0.86952319 0.33794706
vn 0.56068522 -0.56068522 0.60931451
vn 0.86952319 -0.36016830 0.33794706
vn -1.1855618e-16 1.5242938e-16 -1.00000000
vn -0.31070118 1.4863496e-17 0.95050764
vn 4.2865559e-3 1.7755496e-3 0.99998924
vn -0.21969891 -0.21969891 0.95050764
vn 1.7755496e-3 4.2865559e-3 0.99998924
vn 2.7844283e-15 -0.31070118 0.95050764
vn -1.7755496e-3 4.2865559e-3 0.99998924
vn 0.21969891 -0.21969891 0.95050764
vn -4.2865559e-3 1.7755496e-3 0.99998924
vn 0.31070118 6.3417584e-16 0.95050764
vn -4.2865559e-3 -1.7755496e-3 0.99998924
vn 0.21969891 0.21969891 0.95050764
vn -1.7755496e-3 -4.2865559e-3 0.99998924
vn -2.0561170e-15 0.31070118 0.95050764
vn 1.7755496e-3 -4.2865559e-3 0.99998924
vn -0.21969891 0.21969891 0.95050764
vn 4.2865559e-3 -1.7755496e-3 0.99998924
vn -2.6791126e-16 3.7034792e-16 1.00000000
g propCenter_prop_auv
usemtl prop_auv
s 1
f 1//1 17//17 2//2
f 1//1 33//33 16//16
f 2//2 17//17 3//3
f 2//2 19//19 1//1
f 3//3 17//17 4//4
f 3//3 19//19 2//2
f 4//4 17//17 5//5
f 4//4 21//21 3//3
f 5//5 17//17 6//6
f 5//5 21//21 4//4
f 6//6 17//17 7//7
f 6//6 23//23 5//5
f 7//7 17//17 8//8
f 7//7 23//23 6//6
f 8//8 17//17 9//9
f 8//8 25//25 7//7
f 9//9 17//17 10//10
f 9//9 25//25 8//8
f 10//10 17//17 11//11
f 10//10 27//27 9//9
f 11//11 17//17 12//12
f 11//11 27//27 10//10
f 12//12 17//17 13//13
f 12//12 29//29 11//11
f 13//13 17//17 14//14
f 13//13 29//29 12//12
f 14//14 17//17 15//15
f 14//14 31//31 13//13
f 15//15 17//17 16//16
f 15//15 31//31 14//14
f 16//16 17//17 1//1
f 16//16 33//33 15//15
f 18//18 1//1 19//19
f 18//18 34//34 33//33
f 19//19 3//3 20//20
f 19//19 34//34 18//18
f 20//20 3//3 21//21
f 20//20 34//34 19//19
f 21//21 5//5 22//22
f 21//21 34//34 20//20
f 22//22 5//5 23//23
f 22//22 34//34 21//21
f 23//23 7//7 24//24
f 23//23 34//34 22//22
f 24//24 7//7 25//25
f 24//24 34//34 23//23
f 25//25 9//9 26//26
f 25//25 34//34 24//24
f 26//26 9//9 27//27
f 26//26 34//34 25//25
f 27//27 11//11 28//28
f 27//27 34//34 26//26
f 28//28 11//11 29//29
f 28//28 34//34 27//27
f 29//29 13//13 30//30
f 29//29 34//34 28//28
f 30//30 13//13 31//31
f 30//30 34//34 29//29
f 31//31 15//15 32//32
f 31//31 34//34 30//30
f 32//32 15//15 33//33
f 32//32 34//34 31//31
f 33//33 1//1 18//18
f 33//33 34//34 32//32
