# Exported from Wings 3D 2.2.6.1
mtllib ship_body.mtl
o ship
#43 vertices, 82 faces
v 0.46604296 -4.6098739e-2 0.14070385
v 0.46604296 4.5631895e-2 0.14070385
v 0.28477197 -9.3266190e-2 0.61334395
v 0.28477197 4.5631895e-2 0.61334395
v 4.7135179e-2 -4.9075029e-2 -0.52579798
v 5.3436673e-2 -0.10214269 -0.51874031
v 1.6898566e-16 -4.9075029e-2 -0.54243393
v 1.6898566e-16 -0.11873436 -0.54243393
v 3.4899433e-17 -0.16403757 0.55246322
v 0.16961230 0.11653721 0.58290359
v 0.16961230 -0.14744589 0.58290359
v 0.16961230 0.16403757 0.14070385
v 0.16961230 -0.14744589 0.14070385
v 9.1308654e-2 4.5778787e-2 -0.27071349
v 9.1308654e-2 -0.10009243 -0.27071349
v 0.18261731 -6.9341139e-2 -0.27071349
v 0.18261731 -1.7215671e-3 -0.27071349
v -0.46604296 -4.6098739e-2 0.14070385
v -0.46604296 4.5631895e-2 0.14070385
v -0.28477197 -9.3266190e-2 0.61334395
v -0.28477197 4.5631895e-2 0.61334395
v -4.7135178e-2 -4.9075029e-2 -0.52579798
v -5.3436673e-2 -0.10214269 -0.51874031
v -0.16961230 0.11653721 0.58290359
v -0.16961230 -0.14744589 0.58290359
v -0.16961230 0.16403757 0.14070385
v -0.16961230 -0.14744589 0.14070385
v -9.1308654e-2 4.5778787e-2 -0.27071349
v -9.1308654e-2 -0.10009243 -0.27071349
v -0.18261731 -6.9341139e-2 -0.27071349
v -0.18261731 -1.7215671e-3 -0.27071349
v 0.46000000 3.0000000e-2 0.75000000
v 0.45772550 -7.1296880e-2 0.74511746
v 0.70915791 -3.8727536e-2 0.56847637
v 0.70915791 7.1441743e-2 0.56847637
v -0.70915791 -3.8727536e-2 0.56847637
v -0.45772550 -7.1296880e-2 0.74511746
v -0.46000000 3.0000000e-2 0.75000000
v -0.70915791 7.1441743e-2 0.56847637
v -0.63703343 -3.0140266e-2 0.75003234
v -0.63703343 5.2996997e-2 0.75003234
v 0.63703343 -3.0140266e-2 0.75003234
v 0.63703343 5.2996997e-2 0.75003234
vt 0.0000000e+0 6.1527578e-2
vt 0.0000000e+0 0.33546401
vt 0.0000000e+0 0.55805785
vt 0.0000000e+0 0.61344039
vt 0.0000000e+0 0.81994340
vt 2.7755576e-17 0.59925918
vt 1.8005451e-3 0.81191949
vt 5.6999728e-2 0.59925918
vt 7.7255197e-2 0.27569172
vt 7.8340824e-2 2.5674596e-3
vt 8.0897382e-2 0.54761839
vt 8.2896902e-2 0.27402717
vt 0.13431998 1.00000000
vt 0.14048095 0.81191949
vt 0.14241516 0.59925918
vt 0.14241516 0.79901826
vt 0.14241516 0.81087400
vt 0.15816785 0.27402717
vt 0.16086945 0.0000000e+0
vt 0.17752658 0.99756535
vt 0.17752658 0.99756536
vt 0.19068130 0.35581681
vt 0.19068130 0.35584497
vt 0.19192642 8.2051483e-2
vt 0.19192642 8.2063599e-2
vt 0.21457216 0.81191949
vt 0.22073319 1.00000000
vt 0.22295137 0.0000000e+0
vt 0.22312382 0.27402717
vt 0.22439551 0.54761839
vt 0.22439551 0.57799010
vt 0.22439551 0.59148129
vt 0.22469395 0.56111467
vt 0.29477979 0.59925918
vt 0.29477979 0.61855275
vt 0.29477979 0.79901826
vt 0.30063150 0.54755129
vt 0.30103087 0.27399671
vt 0.30403789 0.27562155
vt 0.30548099 2.5352452e-3
vt 0.35042469 0.54761839
vt 0.35431628 0.54761839
vt 0.35431628 0.57151218
vt 0.35474745 0.57887821
vt 0.35505311 0.81994336
vt 0.35505311 0.81995194
vt 0.35599441 0.93797639
vt 0.37717917 0.57864391
vt 0.38065035 0.55470213
vt 0.38134489 0.33532683
vt 0.38384482 0.0000000e+0
vt 0.38384482 3.0371709e-2
vt 0.38384482 5.4951598e-2
vt 0.38384482 6.1464780e-2
vt 0.38384482 0.10443475
vt 0.38384482 0.14563607
vt 0.38384482 0.36723588
vt 0.38384482 0.39282614
vt 0.38691412 0.59231099
vt 0.43051002 0.79838705
vt 0.43203765 0.81191949
vt 0.43678710 0.59925918
vt 0.44339955 0.37493344
vt 0.47019676 0.15722871
vt 0.47606778 0.79065088
vt 0.47606778 0.79065777
vt 0.50766327 0.93822737
vt 0.50899518 0.82020669
vt 0.50899518 0.82178713
vt 0.50899518 0.86886624
vt 0.51531491 0.59925918
vt 0.52162689 0.79838595
vt 0.52682125 0.37493344
vt 0.52964558 0.17545721
vt 0.52964558 0.27910652
vt 0.52991391 0.38388047
vt 0.52991391 0.50381769
vt 0.52991391 0.58488882
vt 0.53340092 0.52775463
vt 0.55158764 0.15722871
vt 0.55582937 0.52806776
vt 0.55626574 0.49681125
vt 0.57526920 0.37493344
vt 0.59694293 0.16617574
vt 0.59721127 0.49681125
vt 0.60484316 5.1640781e-2
vt 0.60484316 9.2842108e-2
vt 0.60484316 0.10774556
vt 0.60484316 0.15722871
vt 0.60665650 0.81191949
vt 0.60665650 0.87430634
vt 0.60824033 1.0439454e-2
vt 0.60824033 5.1640781e-2
vt 0.60824033 0.21162911
vt 0.60824033 0.21282040
vt 0.60824033 0.36709958
vt 0.60824033 0.38708621
vt 0.60824033 0.51104704
vt 0.60824033 0.57343389
vt 0.61212955 0.34320528
vt 0.62519574 0.49810161
vt 0.62574006 0.33533651
vt 0.64675187 0.34320528
vt 0.64911356 0.51104704
vt 0.65732560 0.61852786
vt 0.65732560 0.62359429
vt 0.65732560 0.68598114
vt 0.65732560 0.72168568
vt 0.65732560 0.75902725
vt 0.66804792 0.33614187
vt 0.67303031 0.49809962
vt 0.68997653 0.38708282
vt 0.69019766 0.21282040
vt 0.69019766 0.21438052
vt 0.69019766 0.33138989
vt 0.69357308 0.0000000e+0
vt 0.70590165 0.52091468
vt 0.70590165 0.56799379
vt 0.71082673 0.59925918
vt 0.71082673 0.71782866
vt 0.73785938 0.35671607
vt 0.73815960 0.38708282
vt 0.74369879 0.23715552
vt 0.74369879 0.29954237
vt 0.74507147 0.71782866
vt 0.74507147 0.76731181
vt 0.74884289 0.21282040
vt 0.75052443 1.3877788e-17
vt 0.75052443 1.4355637e-2
vt 0.75052443 0.19835112
vt 0.75052443 0.39062401
vt 0.75052443 0.57722995
vt 0.75052443 0.79915303
vt 0.75091426 0.19835112
vt 0.76847193 0.68789371
vt 0.78569495 0.39062401
vt 0.78569495 0.57663439
vt 0.79379552 0.57663439
vt 0.81174302 0.59512012
vt 0.81174302 0.63246168
vt 0.81174302 0.68789371
vt 0.81174302 0.68848927
vt 0.81174302 0.73737686
vt 0.81174302 0.78445598
vt 0.82699494 1.3503957e-2
vt 0.86771854 0.39062401
vt 0.86771854 0.57663439
vt 0.89231043 0.57663439
vt 0.89231043 0.62371351
vt 0.89231043 0.75586258
vt 0.89231043 0.79320415
vt 0.89948889 0.69175073
vt 0.89948889 0.72909230
vt 0.90288906 0.19835112
vt 0.90288906 0.39062401
vt 0.90307561 0.19835112
vt 0.90346544 0.0000000e+0
vn 0.66934448 -0.67703063 -0.30595341
vn 0.68729470 0.60510819 -0.40183340
vn -5.9459869e-2 -0.85081879 0.52208420
vn -0.17646341 0.68169696 0.71003515
vn 0.42812571 0.70939439 -0.55988211
vn 0.61697291 -0.61442243 -0.49176163
vn -1.7011490e-9 0.21817996 -0.97590855
vn 2.3709416e-15 -0.54665669 -0.83735683
vn -9.7763409e-18 -0.72736587 0.68624987
vn 2.0037989e-2 0.48516473 0.87419315
vn 3.4724354e-2 -0.69033658 0.72265456
vn 0.24847333 0.96579431 -7.4177801e-2
vn 0.15276782 -0.98438822 -8.7417543e-2
vn 0.14737652 0.93123011 -0.33330263
vn 0.12863983 -0.98974185 -6.2151960e-2
vn 0.71221563 -0.57487960 -0.40281799
vn 0.72401236 0.49025133 -0.48524195
vn -0.70116283 -0.59748638 -0.38907675
vn -0.59413340 0.76765073 -0.24024540
vn 0.13918784 -0.73398356 0.66475174
vn 0.13956364 0.79868575 0.58534012
vn -0.34748983 0.77464126 -0.52837650
vn -0.53809175 -0.72654046 -0.42731281
vn -2.8075830e-2 0.63876761 0.76888731
vn -3.3346286e-2 -0.69730087 0.71600246
vn -0.20038357 0.96385663 -0.17557568
vn -0.19767999 -0.97900551 -4.9707527e-2
vn -0.22170709 0.91354267 -0.34100698
vn -0.16122192 -0.98179509 -0.10042852
vn -0.72138833 -0.57908891 -0.37980904
vn -0.75304418 0.41912718 -0.50720496
vn -0.27203730 0.66291684 0.69752202
vn -0.20758422 -0.46956831 0.85814591
vn 0.73276913 -0.67643816 7.4032532e-2
vn 0.62957314 0.76905480 -0.11041910
vn -0.60916455 -0.79294601 -1.2457097e-2
vn 9.7655954e-2 -0.72217054 0.68478684
vn 0.31414384 0.42506090 0.84890334
vn -0.74915898 0.66226555 -1.2851465e-2
vn -0.56058247 -0.27605279 0.78073181
vn -0.41989312 0.51952988 0.74416294
vn 0.53143208 -0.45866499 0.71218422
vn 0.50232555 0.27697650 0.81911724
g ship_prop_auv
usemtl prop_auv
s 1
f 1/3/1 16/30/16 2/6/2
f 1/38/1 34/25/34 3/54/3
f 1/86/1 35/55/35 34/53/34
f 2/78/2 12/59/12 4/63/4
f 2/105/2 17/72/17 12/71/12
f 2/87/2 35/55/35 1/86/1
f 3/116/3 11/129/11 1/94/1
f 3/98/3 33/117/33 4/99/4
f 3/54/3 34/25/34 33/40/33
f 4/124/4 11/113/11 3/123/3
f 4/63/4 12/59/12 10/58/10
f 4/99/4 33/117/33 32/118/32
f 4/2/4 35/22/35 2/11/2
f 5/43/5 17/32/17 6/41/6
f 5/110/5 22/102/22 14/114/14
f 6/77/6 7/81/7 5/79/5
f 6/77/6 8/82/8 7/81/7
f 6/141/6 16/132/16 15/138/15
f 6/41/6 17/32/17 16/33/16
f 6/101/6 23/111/23 8/104/8
f 7/103/7 22/102/22 5/110/5
f 7/44/7 23/49/23 22/48/22
f 8/42/8 23/49/23 7/44/7
f 9/61/9 11/68/11 10/67/10
f 9/145/9 13/134/13 11/128/11
f 9/145/9 27/156/27 13/134/13
f 10/115/10 11/113/11 4/124/4
f 10/67/10 24/47/24 9/61/9
f 11/129/11 13/127/13 1/94/1
f 12/71/12 17/72/17 14/66/14
f 12/36/12 24/15/24 10/34/10
f 12/36/12 26/16/26 24/15/24
f 13/14/13 16/13/16 1/5/1
f 13/131/13 29/147/29 15/137/15
f 14/80/14 17/84/17 5/75/5
f 14/146/14 26/130/26 12/154/12
f 14/146/14 28/136/28 26/130/26
f 15/20/15 16/13/16 13/14/13
f 15/97/15 23/111/23 6/101/6
f 15/97/15 29/112/29 23/111/23
f 16/30/16 17/31/17 2/6/2
f 18/17/18 27/7/27 20/8/20
f 18/45/18 29/21/29 27/26/27
f 18/45/18 30/27/30 29/21/29
f 18/92/18 31/52/31 30/51/30
f 18/55/18 39/89/39 19/56/19
f 19/93/19 31/52/31 18/92/18
f 19/37/19 39/23/39 21/50/21
f 20/106/20 24/120/24 21/107/21
f 20/106/20 25/119/25 24/120/24
f 20/8/20 27/7/27 25/4/25
f 20/1/20 36/24/36 18/12/18
f 20/1/20 37/10/37 36/24/36
f 20/90/20 38/70/38 37/69/37
f 21/64/21 24/74/24 19/57/19
f 21/91/21 38/70/38 20/90/20
f 21/50/21 39/23/39 38/39/38
f 22/102/22 28/95/28 14/114/14
f 22/85/22 31/76/31 28/83/28
f 23/100/23 31/122/31 22/96/22
f 24/47/24 25/46/25 9/61/9
f 24/74/24 26/73/26 19/57/19
f 25/157/25 27/156/27 9/145/9
f 26/62/26 31/60/31 19/35/19
f 27/155/27 29/147/29 13/131/13
f 28/65/28 31/60/31 26/62/26
f 29/135/29 30/142/30 23/133/23
f 30/121/30 31/122/31 23/100/23
f 32/9/32 35/22/35 4/2/4
f 32/9/32 43/18/43 35/22/35
f 33/143/33 43/151/43 32/144/32
f 34/25/34 42/28/42 33/40/33
f 34/125/34 43/109/43 42/108/42
f 35/126/35 43/109/43 34/125/34
f 36/88/36 39/89/39 18/55/18
f 36/141/36 40/152/40 39/143/39
f 37/10/37 40/19/40 36/24/36
f 38/149/38 40/139/40 37/148/37
f 38/149/38 41/140/41 40/139/40
f 39/23/39 41/29/41 38/39/38
f 40/152/40 41/153/41 39/143/39
f 42/150/42 43/151/43 33/143/33
